<svg width="44" height="45" viewBox="0 0 44 45" fill="none" xmlns="http://www.w3.org/2000/svg">
<path d="M22 0.73999C33.8741 0.73999 43.5 10.3659 43.5 22.24C43.5 34.1141 33.8741 43.74 22 43.74C10.1259 43.74 0.5 34.1141 0.5 22.24C0.5 10.3659 10.1259 0.73999 22 0.73999Z" stroke="#999999"/>
<path d="M29.9004 17.3357V22.1814C29.9004 26.6744 26.9498 30.8661 23 31.8953C19.0502 30.8661 16.0996 26.6744 16.0996 22.1814V17.3357L23 14.1101L29.9004 17.3357ZM23.9727 21.2703L23.9961 21.3269L24.0566 21.3318L26.6143 21.5642L24.667 23.3347L24.624 23.3738L24.6367 23.4304L25.2217 26.0593L23.0303 24.6746L22.9766 24.6404L22.9229 24.6746L20.7373 26.0593L21.3164 23.4304L21.3291 23.3738L21.2861 23.3347L19.3457 21.572L21.9043 21.3406L21.9658 21.3347L21.9883 21.2781L22.9766 18.8083L23.9727 21.2703ZM28.5449 18.2722L28.4873 18.2458L23.042 15.6931L23 15.6726L22.958 15.6931L17.5127 18.2458L17.4551 18.2722V22.3621C17.4552 24.152 18.0955 25.9668 19.1016 27.4373C20.1072 28.907 21.4858 30.0425 22.9727 30.4597L23 30.4675L23.0273 30.4597C24.5142 30.0425 25.8928 28.907 26.8984 27.4373C27.9045 25.9668 28.5448 24.152 28.5449 22.3621V18.2722Z" fill="#525355" stroke="#F8F8F8" stroke-width="0.2"/>
</svg>
