<svg width="108" height="24" viewBox="0 0 108 24" fill="none" xmlns="http://www.w3.org/2000/svg">
<path d="M0.488 18V0.719999H3.608V18H0.488ZM1.976 18V15.528H12.92V18H1.976ZM1.976 10.32V7.896H12.08V10.32H1.976ZM1.976 3.192V0.719999H12.656V3.192H1.976ZM23.2781 18V15.24L23.5181 15.288C23.3101 16.184 22.8061 16.904 22.0061 17.448C21.2061 17.976 20.2541 18.24 19.1501 18.24C18.0301 18.24 17.0541 17.984 16.2221 17.472C15.4061 16.944 14.7741 16.208 14.3261 15.264C13.8781 14.32 13.6541 13.208 13.6541 11.928C13.6541 10.632 13.8861 9.504 14.3501 8.544C14.8141 7.584 15.4621 6.84 16.2941 6.312C17.1421 5.784 18.1261 5.52 19.2461 5.52C20.3981 5.52 21.3501 5.8 22.1021 6.36C22.8541 6.904 23.3181 7.664 23.4941 8.64L23.1821 8.664V0.719999H26.2301V18H23.2781ZM20.0381 15.768C21.0141 15.768 21.7901 15.432 22.3661 14.76C22.9581 14.072 23.2541 13.112 23.2541 11.88C23.2541 10.648 22.9581 9.696 22.3661 9.024C21.7741 8.352 20.9901 8.016 20.0141 8.016C19.0541 8.016 18.2781 8.36 17.6861 9.048C17.0941 9.72 16.7981 10.672 16.7981 11.904C16.7981 13.136 17.0941 14.088 17.6861 14.76C18.2781 15.432 19.0621 15.768 20.0381 15.768ZM32.9283 18.24C32.0803 18.24 31.3443 18.064 30.7203 17.712C30.1123 17.344 29.6403 16.848 29.3043 16.224C28.9843 15.6 28.8243 14.896 28.8243 14.112V5.76H31.8483V13.488C31.8483 14.24 32.0323 14.808 32.4003 15.192C32.7843 15.576 33.3203 15.768 34.0083 15.768C34.6323 15.768 35.1763 15.624 35.6403 15.336C36.1203 15.048 36.4963 14.648 36.7683 14.136C37.0563 13.608 37.2003 13.016 37.2003 12.36L37.5123 15.288C37.1123 16.184 36.5123 16.904 35.7123 17.448C34.9283 17.976 34.0003 18.24 32.9283 18.24ZM37.2963 18V15.12H37.2003V5.76H40.2483V18H37.2963ZM48.2315 23.16C46.6155 23.16 45.2875 22.808 44.2475 22.104C43.2235 21.4 42.6155 20.448 42.4235 19.248H45.3035C45.4475 19.664 45.7595 19.984 46.2395 20.208C46.7355 20.448 47.3755 20.568 48.1595 20.568C49.2955 20.568 50.1355 20.312 50.6795 19.8C51.2235 19.304 51.4955 18.544 51.4955 17.52V14.88L51.7115 14.928C51.5195 15.824 51.0315 16.544 50.2475 17.088C49.4635 17.616 48.5035 17.88 47.3675 17.88C46.2795 17.88 45.3275 17.624 44.5115 17.112C43.7115 16.6 43.0875 15.888 42.6395 14.976C42.1915 14.048 41.9675 12.968 41.9675 11.736C41.9675 10.488 42.1995 9.4 42.6635 8.472C43.1275 7.544 43.7755 6.824 44.6075 6.312C45.4555 5.784 46.4395 5.52 47.5595 5.52C48.7115 5.52 49.6555 5.8 50.3915 6.36C51.1435 6.904 51.6075 7.664 51.7835 8.64L51.5915 8.664V5.76H54.5435V17.496C54.5435 19.24 53.9755 20.616 52.8395 21.624C51.7195 22.648 50.1835 23.16 48.2315 23.16ZM48.3515 15.48C49.3275 15.48 50.1035 15.152 50.6795 14.496C51.2715 13.824 51.5675 12.888 51.5675 11.688C51.5675 10.488 51.2715 9.56 50.6795 8.904C50.0875 8.248 49.3035 7.92 48.3275 7.92C47.3675 7.92 46.5915 8.256 45.9995 8.928C45.4075 9.584 45.1115 10.512 45.1115 11.712C45.1115 12.912 45.4075 13.84 45.9995 14.496C46.5915 15.152 47.3755 15.48 48.3515 15.48ZM57.2818 18V0.719999H60.3058V18H57.2818ZM68.6041 18.24C67.3081 18.24 66.1641 17.968 65.1721 17.424C64.1961 16.88 63.4361 16.128 62.8921 15.168C62.3481 14.192 62.0761 13.08 62.0761 11.832C62.0761 10.584 62.3481 9.488 62.8921 8.544C63.4361 7.6 64.1961 6.864 65.1721 6.336C66.1641 5.792 67.3081 5.52 68.6041 5.52C69.9161 5.52 71.0601 5.792 72.0361 6.336C73.0121 6.864 73.7721 7.6 74.3161 8.544C74.8601 9.488 75.1321 10.584 75.1321 11.832C75.1321 13.08 74.8521 14.192 74.2921 15.168C73.7481 16.128 72.9881 16.88 72.0121 17.424C71.0361 17.968 69.9001 18.24 68.6041 18.24ZM68.6041 15.816C69.2441 15.816 69.8201 15.656 70.3321 15.336C70.8441 15 71.2441 14.536 71.5321 13.944C71.8201 13.336 71.9641 12.624 71.9641 11.808C71.9641 10.608 71.6441 9.664 71.0041 8.976C70.3801 8.288 69.5801 7.944 68.6041 7.944C67.6281 7.944 66.8201 8.288 66.1801 8.976C65.5401 9.664 65.2201 10.608 65.2201 11.808C65.2201 12.624 65.3641 13.336 65.6521 13.944C65.9561 14.536 66.3561 15 66.8521 15.336C67.3641 15.656 67.9481 15.816 68.6041 15.816ZM83.8604 18.24C82.6924 18.24 81.7324 17.968 80.9804 17.424C80.2444 16.864 79.7884 16.096 79.6124 15.12L79.8284 15.096V18H76.8764V0.719999H79.9004V8.52L79.6844 8.472C79.8924 7.56 80.3804 6.84 81.1484 6.312C81.9324 5.784 82.9004 5.52 84.0524 5.52C85.1404 5.52 86.0844 5.784 86.8844 6.312C87.7004 6.824 88.3324 7.552 88.7804 8.496C89.2284 9.44 89.4524 10.552 89.4524 11.832C89.4524 13.128 89.2204 14.256 88.7564 15.216C88.2924 16.176 87.6444 16.92 86.8124 17.448C85.9804 17.976 84.9964 18.24 83.8604 18.24ZM83.0924 15.744C84.0684 15.744 84.8444 15.408 85.4204 14.736C85.9964 14.048 86.2844 13.088 86.2844 11.856C86.2844 10.624 85.9884 9.672 85.3964 9C84.8204 8.328 84.0444 7.992 83.0684 7.992C82.1084 7.992 81.3324 8.336 80.7404 9.024C80.1484 9.696 79.8524 10.648 79.8524 11.88C79.8524 13.112 80.1484 14.064 80.7404 14.736C81.3324 15.408 82.1164 15.744 83.0924 15.744ZM96.9627 18.24C95.6667 18.24 94.5307 17.968 93.5547 17.424C92.5947 16.88 91.8427 16.128 91.2987 15.168C90.7707 14.208 90.5067 13.104 90.5067 11.856C90.5067 10.608 90.7707 9.512 91.2987 8.568C91.8427 7.608 92.5947 6.864 93.5547 6.336C94.5147 5.792 95.6347 5.52 96.9147 5.52C98.1307 5.52 99.1867 5.776 100.083 6.288C100.979 6.784 101.675 7.488 102.171 8.4C102.667 9.312 102.915 10.376 102.915 11.592C102.915 11.816 102.907 12.024 102.891 12.216C102.875 12.408 102.851 12.6 102.819 12.792H92.3787V10.68H100.491L99.8668 11.256C99.8668 10.104 99.6027 9.24 99.0747 8.664C98.5467 8.088 97.8107 7.8 96.8668 7.8C95.8427 7.8 95.0267 8.152 94.4187 8.856C93.8267 9.56 93.5307 10.576 93.5307 11.904C93.5307 13.216 93.8267 14.224 94.4187 14.928C95.0267 15.616 95.8827 15.96 96.9867 15.96C97.6267 15.96 98.1867 15.84 98.6667 15.6C99.1467 15.36 99.4987 14.992 99.7227 14.496H102.579C102.179 15.648 101.499 16.56 100.539 17.232C99.5947 17.904 98.4027 18.24 96.9627 18.24ZM103.759 18V14.544H107.239V18H103.759Z" fill="#0E0F11"/>
</svg>
